<?xml version="1.0" encoding="UTF-8"?>
<svg width="142px" height="142px" viewBox="0 0 142 142" version="1.1" xmlns="http://www.w3.org/2000/svg" xmlns:xlink="http://www.w3.org/1999/xlink">
    <!-- Generator: Sketch 49.1 (51147) - http://www.bohemiancoding.com/sketch -->
    <title>Group 3</title>
    <desc>Created with Sketch.</desc>
    <defs></defs>
    <g id="Color" stroke="none" stroke-width="1" fill="none" fill-rule="evenodd">
        <g id="Artboard-3" transform="translate(-325.000000, -236.000000)">
            <g id="Group-3" transform="translate(326.000000, 237.000000)">
                <path d="M67.7393334,68.0263961 L43.7330275,63.301534 L28.0270631,60.208218 L102.188552,33.5771773 L67.7393334,68.0263961 Z M66.2554925,69.5102371 L53.4985347,82.2688926 L28.0949734,61.9959577 L66.2554925,69.5102371 Z M75.0006468,108.905027 L54.7294096,83.4997676 L67.4863674,70.7462053 L72.073711,94.0343594 L75.0006468,108.905027 Z M74.4030358,96.8475453 L68.9719061,69.2606666 L69.7970168,68.4338582 L103.421125,34.8114477 L76.791782,108.972937 L74.4030358,96.8475453 Z M107,30 L23,60.158983 L23,60.1606807 L52.9416699,84.0549346 L76.9157184,114.074701 L107,30 Z" id="Fill-21" fill="#FFFFFF"></path>
                <circle id="Oval-5" stroke="#FFFFFF" stroke-width="2" cx="70" cy="70" r="70"></circle>
                <path d="M68.7393334,69.0263961 L44.7330275,64.301534 L29.0270631,61.208218 L103.188552,34.5771773 L68.7393334,69.0263961 Z M67.2554925,70.5102371 L54.4985347,83.2688926 L29.0949734,62.9959577 L67.2554925,70.5102371 Z M76.0006468,109.905027 L55.7294096,84.4997676 L68.4863674,71.7462053 L73.073711,95.0343594 L76.0006468,109.905027 Z M75.4030358,97.8475453 L69.9719061,70.2606666 L70.7970168,69.4338582 L104.421125,35.8114477 L77.791782,109.972937 L75.4030358,97.8475453 Z M108,31 L24,61.158983 L24,61.1606807 L53.9416699,85.0549346 L77.9157184,115.074701 L108,31 Z" id="Fill-21" fill="#FFFFFF"></path>
            </g>
        </g>
    </g>
</svg>