<?xml version="1.0" encoding="UTF-8"?>
<svg width="146px" height="50px" viewBox="0 0 146 50" version="1.1" xmlns="http://www.w3.org/2000/svg" xmlns:xlink="http://www.w3.org/1999/xlink">
    <!-- Generator: Sketch 49.1 (51147) - http://www.bohemiancoding.com/sketch -->
    <title>Group Copy</title>
    <desc>Created with Sketch.</desc>
    <defs></defs>
    <g id="Color" stroke="none" stroke-width="1" fill="none" fill-rule="evenodd" opacity="0.600000024">
        <g id="01.-Index---No-Auth" transform="translate(-150.000000, -2141.000000)" fill="#000000">
            <g id="Group-7" transform="translate(150.000000, 2141.000000)">
                <g id="Group-Copy">
                    <polygon id="Fill-1" points="55.9466 25.2173 55.9466 34.5573 53.3016 34.5573 53.3016 25.2173 49.6526 25.2173 49.6526 22.6893 59.6126 22.6893 59.6126 25.2173"></polygon>
                    <path d="M64.0081,32.5992 C65.0291,32.5992 65.9001,31.7952 65.9001,30.3892 C65.9001,28.9502 65.0461,28.1972 64.0081,28.1972 C62.9201,28.1972 62.1001,28.9502 62.1001,30.3892 C62.1001,31.7622 62.9531,32.5992 64.0081,32.5992 Z M65.9161,33.4862 C65.5481,34.2892 64.7111,34.7912 63.6731,34.7912 C61.2291,34.7912 59.5391,32.9332 59.5391,30.3722 C59.5391,27.8952 61.1291,25.9872 63.5901,25.9872 C65.0791,25.9872 65.7321,26.8072 65.9001,27.1922 L65.9001,26.2382 L68.3601,26.2382 L68.3601,33.0672 C68.3601,33.8372 68.4101,34.3722 68.4271,34.5572 L65.9831,34.5572 C65.9491,34.3722 65.9161,33.9212 65.9161,33.5702 L65.9161,33.4862 Z" id="Fill-2"></path>
                    <polygon id="Fill-4" points="76.0135 29.7359 79.3275 34.5569 76.2145 34.5569 74.2555 31.6279 73.4355 32.5149 73.4355 34.5569 70.8915 34.5569 70.8915 22.4379 73.4355 22.4379 73.4355 29.0339 75.9635 26.2379 79.2605 26.2379"></polygon>
                    <polygon id="Fill-6" points="80.854 34.5568 83.398 34.5568 83.398 22.4378 80.854 22.4378"></polygon>
                    <path d="M85.859,34.5568 L88.403,34.5568 L88.403,26.2378 L85.859,26.2378 L85.859,34.5568 Z M87.115,22.2038 C87.952,22.2038 88.621,22.8738 88.621,23.6938 C88.621,24.5138 87.952,25.1828 87.115,25.1828 C86.311,25.1828 85.641,24.5138 85.641,23.6938 C85.641,22.8738 86.311,22.2038 87.115,22.2038 Z" id="Fill-8"></path>
                    <path d="M90.8641,34.5572 L90.8641,26.2382 L93.2911,26.2382 L93.2911,27.1922 C93.7101,26.4552 94.7811,25.9872 95.6851,25.9872 C96.8731,25.9872 97.7271,26.4722 98.1451,27.2922 C98.7981,26.3552 99.6021,25.9872 100.7231,25.9872 C102.2971,25.9872 103.8031,26.9082 103.8031,29.1672 L103.8031,34.5572 L101.3431,34.5572 L101.3431,29.7362 C101.3431,28.9502 100.9241,28.3302 100.0201,28.3302 C99.1161,28.3302 98.6311,29.0162 98.6311,29.7532 L98.6311,34.5572 L96.1201,34.5572 L96.1201,29.7362 C96.1201,28.9502 95.7011,28.3302 94.7811,28.3302 C93.8941,28.3302 93.4081,29.0162 93.4081,29.7702 L93.4081,34.5572 L90.8641,34.5572 Z" id="Fill-9"></path>
                    <path d="M110.2108,32.5992 C111.2318,32.5992 112.1028,31.7952 112.1028,30.3892 C112.1028,28.9502 111.2488,28.1972 110.2108,28.1972 C109.1228,28.1972 108.3028,28.9502 108.3028,30.3892 C108.3028,31.7622 109.1558,32.5992 110.2108,32.5992 Z M112.1188,33.4862 C111.7508,34.2892 110.9138,34.7912 109.8758,34.7912 C107.4318,34.7912 105.7418,32.9332 105.7418,30.3722 C105.7418,27.8952 107.3318,25.9872 109.7928,25.9872 C111.2818,25.9872 111.9348,26.8072 112.1028,27.1922 L112.1028,26.2382 L114.5628,26.2382 L114.5628,33.0672 C114.5628,33.8372 114.6128,34.3722 114.6298,34.5572 L112.1858,34.5572 C112.1518,34.3722 112.1188,33.9212 112.1188,33.5702 L112.1188,33.4862 Z" id="Fill-10"></path>
                    <polygon id="Fill-11" points="122.2162 29.7359 125.5302 34.5569 122.4172 34.5569 120.4582 31.6279 119.6382 32.5149 119.6382 34.5569 117.0942 34.5569 117.0942 22.4379 119.6382 22.4379 119.6382 29.0339 122.1662 26.2379 125.4632 26.2379"></polygon>
                    <path d="M130.6121,32.5992 C131.6331,32.5992 132.5041,31.7952 132.5041,30.3892 C132.5041,28.9502 131.6501,28.1972 130.6121,28.1972 C129.5241,28.1972 128.7041,28.9502 128.7041,30.3892 C128.7041,31.7622 129.5571,32.5992 130.6121,32.5992 Z M132.5201,33.4862 C132.1521,34.2892 131.3151,34.7912 130.2771,34.7912 C127.8331,34.7912 126.1431,32.9332 126.1431,30.3722 C126.1431,27.8952 127.7331,25.9872 130.1941,25.9872 C131.6831,25.9872 132.3361,26.8072 132.5041,27.1922 L132.5041,26.2382 L134.9641,26.2382 L134.9641,33.0672 C134.9641,33.8372 135.0141,34.3722 135.0311,34.5572 L132.5871,34.5572 C132.5531,34.3722 132.5201,33.9212 132.5201,33.5702 L132.5201,33.4862 Z" id="Fill-12"></path>
                    <path d="M140.0399,34.5572 L137.4959,34.5572 L137.4959,26.2382 L139.9559,26.2382 L139.9559,27.1922 C140.4079,26.4062 141.4289,26.0202 142.2829,26.0202 C144.3749,26.0202 145.3129,27.5102 145.3129,29.3342 L145.3129,34.5572 L142.7679,34.5572 L142.7679,29.7702 C142.7679,28.9502 142.3329,28.3302 141.4129,28.3302 C140.5759,28.3302 140.0399,28.9502 140.0399,29.7862 L140.0399,34.5572 Z" id="Fill-13"></path>
                    <polygon id="Fill-14" points="56.5589 48.9097 51.0589 40.6107 51.0589 48.9097 49.6529 48.9097 49.6529 38.7287 51.5339 38.7287 56.6169 46.5407 56.6169 38.7287 58.0229 38.7287 58.0229 48.9097"></polygon>
                    <path d="M65.4217,44.7457 C65.3927,43.7557 64.7467,42.9797 63.5267,42.9797 C62.3917,42.9797 61.7027,43.8547 61.6457,44.7457 L65.4217,44.7457 Z M66.7857,46.9427 C66.3987,48.1627 65.2927,49.1257 63.6847,49.1257 C61.8327,49.1257 60.2097,47.7747 60.2097,45.4347 C60.2097,43.2667 61.7747,41.7877 63.5117,41.7877 C65.6367,41.7877 66.8287,43.2527 66.8287,45.4057 C66.8287,45.5787 66.8147,45.7507 66.7997,45.8377 L61.6027,45.8377 C61.6307,47.0717 62.5217,47.9337 63.6847,47.9337 C64.8047,47.9337 65.3647,47.3157 65.6227,46.5407 L66.7857,46.9427 Z" id="Fill-15"></path>
                    <path d="M70.6463,42.0035 L72.1393,42.0035 L72.1393,43.2245 L70.6463,43.2245 L70.6463,46.8135 C70.6463,47.4445 70.9043,47.7615 71.6083,47.7615 C71.7803,47.7615 72.0243,47.7325 72.1393,47.7035 L72.1393,48.8525 C72.0243,48.8955 71.6803,48.9825 71.2203,48.9825 C70.0433,48.9825 69.2963,48.2635 69.2963,47.0145 L69.2963,43.2245 L67.9753,43.2245 L67.9753,42.0035 L68.3493,42.0035 C69.0953,42.0035 69.4113,41.5435 69.4113,40.9415 L69.4113,39.8205 L70.6463,39.8205 L70.6463,42.0035 Z" id="Fill-16"></path>
                    <polygon id="Fill-17" points="79.6996 42.0035 81.4946 47.2005 83.0166 42.0035 84.4376 42.0035 82.1986 48.9095 80.8046 48.9095 78.9676 43.6545 77.1726 48.9095 75.7506 48.9095 73.4826 42.0035 74.9616 42.0035 76.5116 47.2005 78.3066 42.0035"></polygon>
                    <path d="M91.0482,45.4498 C91.0482,43.8548 90.0432,42.9938 88.8942,42.9938 C87.7462,42.9938 86.7402,43.8548 86.7402,45.4498 C86.7402,47.0568 87.7462,47.9188 88.8942,47.9188 C90.0432,47.9188 91.0482,47.0568 91.0482,45.4498 M92.4262,45.4498 C92.4262,47.5598 90.9622,49.1258 88.8942,49.1258 C86.8272,49.1258 85.3622,47.5598 85.3622,45.4498 C85.3622,43.3528 86.8272,41.7878 88.8942,41.7878 C90.9622,41.7878 92.4262,43.3528 92.4262,45.4498" id="Fill-18"></path>
                    <path d="M98.2025,43.3677 C98.0015,43.3387 97.8005,43.3237 97.6135,43.3237 C96.4795,43.3237 95.7185,43.9277 95.7185,45.4497 L95.7185,48.9097 L94.3685,48.9097 L94.3685,42.0037 L95.6895,42.0037 L95.6895,43.2097 C96.1925,42.1467 97.0535,41.8887 97.7575,41.8887 C97.9445,41.8887 98.1305,41.9177 98.2025,41.9307 L98.2025,43.3677 Z" id="Fill-19"></path>
                    <polygon id="Fill-20" points="103.0775 44.9185 106.0785 48.9095 104.3845 48.9095 102.1305 45.8655 101.1675 46.8275 101.1675 48.9095 99.8325 48.9095 99.8325 38.5145 101.1675 38.5145 101.1675 45.0625 104.1545 42.0035 106.0215 42.0035"></polygon>
                    <path d="M26.3519,22.398 L12.2119,19.615 L2.9609,17.793 L46.6429,2.107 L26.3519,22.398 Z M25.4779,23.272 L17.9639,30.787 L3.0009,18.846 L25.4779,23.272 Z M30.6289,46.476 L18.6889,31.512 L26.2029,24 L28.9049,37.717 L30.6289,46.476 Z M30.2769,39.374 L27.0779,23.125 L27.5639,22.638 L47.3689,2.834 L31.6839,46.516 L30.2769,39.374 Z M49.4769,0 L-0.0001,17.764 L-0.0001,17.765 L17.6359,31.839 L31.7569,49.521 L49.4769,0 Z" id="Fill-21"></path>
                    <polygon id="Fill-22" points="24.4964 34.48 16.8514 42.125 21.6264 49.973"></polygon>
                    <polygon id="Fill-23" points="9.0037 37.3501 16.8517 42.1241 24.4967 34.4801"></polygon>
                    <path d="M9.0037,37.3501 C9.1457,37.4921 21.6267,49.9731 21.6267,49.9731 L16.8517,42.1241 L9.0037,37.3501 Z" id="Fill-24"></path>
                </g>
            </g>
        </g>
    </g>
</svg>