<?xml version="1.0" encoding="UTF-8"?>
<svg width="116px" height="40px" viewBox="0 0 116 40" version="1.1" xmlns="http://www.w3.org/2000/svg" xmlns:xlink="http://www.w3.org/1999/xlink">
    <!-- Generator: Sketch 49.3 (51167) - http://www.bohemiancoding.com/sketch -->
    <title>logo-01</title>
    <desc>Created with Sketch.</desc>
    <defs></defs>
    <g id="Color" stroke="none" stroke-width="1" fill="none" fill-rule="evenodd">
        <g id="Taklimakan-Investor's-Profile-var.-1.1" transform="translate(-25.000000, -10.000000)">
            <g id="logo-01" transform="translate(25.000000, 10.000000)">
                <g>
                    <polyline id="Fill-1" fill="#5C5292" points="47.8682706 18.505697 47.8682706 20.7052121 45.211797 20.7052121 45.211797 27.8346667 42.7176744 27.8346667 42.7176744 20.7052121 40.0489387 20.7052121 40.0489387 18.505697 47.8682706 18.505697"></polyline>
                    <path d="M51.4130148,26.1689697 C52.0464778,26.1689697 52.5183256,25.7825455 52.7204059,25.3692121 L52.7204059,23.9030303 C52.5183256,23.489697 52.0464778,23.1035152 51.4130148,23.1035152 C50.4425877,23.1035152 50.024203,23.8901818 50.024203,24.6356364 C50.024203,25.382303 50.4425877,26.1689697 51.4130148,26.1689697 Z M50.7927949,28.0341818 C48.6226385,28.0341818 47.6652093,26.2882424 47.6652093,24.6356364 C47.6652093,22.984 48.6226385,21.2380606 50.7927949,21.2380606 C51.9520592,21.2380606 52.6666977,21.7709091 52.9904186,22.3035152 L52.9904186,21.4378182 L55.0126934,21.4378182 L55.0126934,27.8346667 L52.9904186,27.8346667 L52.9904186,26.9687273 C52.6666977,27.5015758 51.9520592,28.0341818 50.7927949,28.0341818 Z" id="Fill-2" fill="#5C5292"></path>
                    <polyline id="Fill-3" fill="#5C5292" points="61.0194334 27.8346667 59.4287865 25.4092121 58.9436956 25.4092121 58.9436956 27.8346667 56.651408 27.8346667 56.651408 18.505697 58.9436956 18.505697 58.9436956 23.6763636 59.4562537 23.6763636 60.8713066 21.4378182 63.4333615 21.4378182 61.3301564 24.5825455 63.5684905 27.8346667 61.0194334 27.8346667"></polyline>
                    <polygon id="Fill-4" fill="#5C5292" points="64.4641184 27.8346667 66.7551797 27.8346667 66.7551797 18.1061818 64.4641184 18.1061818"></polygon>
                    <path d="M68.3701057,27.8346667 L70.661167,27.8346667 L70.661167,21.4378182 L68.3701057,21.4378182 L68.3701057,27.8346667 Z M69.5161268,20.5316364 C68.8277294,20.5316364 68.2077548,20.158303 68.2077548,19.278303 C68.2077548,18.4123636 68.8277294,18.0390303 69.5161268,18.0390303 C70.2165412,18.0390303 70.823518,18.4123636 70.823518,19.278303 C70.823518,20.158303 70.2165412,20.5316364 69.5161268,20.5316364 Z" id="Fill-5" fill="#5C5292"></path>
                    <path d="M72.2616237,27.8346667 L72.2616237,21.4378182 L74.2848795,21.4378182 L74.2848795,22.1168485 C74.6218436,21.7175758 75.3497252,21.2380606 76.2794419,21.2380606 C77.2498689,21.2380606 77.8438478,21.6244848 78.194055,22.1168485 C78.719611,21.6373333 79.4070275,21.2380606 80.2567949,21.2380606 C82.19863,21.2380606 82.6430106,22.7832727 82.6430106,23.7294545 L82.6430106,27.8346667 L80.3512135,27.8346667 L80.3512135,23.9301818 C80.3512135,23.4235152 80.0142495,23.1706667 79.6100888,23.1706667 C79.299611,23.1706667 78.9491586,23.3030303 78.666148,23.5830303 C78.666148,23.6361212 78.666148,23.6763636 78.666148,23.7294545 L78.666148,27.8346667 L76.3738605,27.8346667 L76.3738605,23.9301818 C76.3738605,23.4235152 76.0368964,23.1706667 75.6327357,23.1706667 C75.2685497,23.1706667 74.8501649,23.3573333 74.5539112,23.7294545 L74.5539112,27.8346667 L72.2616237,27.8346667" id="Fill-6" fill="#5C5292"></path>
                    <path d="M87.6719662,26.1689697 C88.3054292,26.1689697 88.7775222,25.7825455 88.9793573,25.3692121 L88.9793573,23.9030303 C88.7775222,23.489697 88.3054292,23.1035152 87.6719662,23.1035152 C86.7015391,23.1035152 86.2833996,23.8901818 86.2833996,24.6356364 C86.2833996,25.382303 86.7015391,26.1689697 87.6719662,26.1689697 Z M87.0517463,28.0341818 C84.8813446,28.0341818 83.9241607,26.2882424 83.9241607,24.6356364 C83.9241607,22.984 84.8813446,21.2380606 87.0517463,21.2380606 C88.2110106,21.2380606 88.9258943,21.7709091 89.2496152,22.3035152 L89.2496152,21.4378182 L91.2716448,21.4378182 L91.2716448,27.8346667 L89.2496152,27.8346667 L89.2496152,26.9687273 C88.9258943,27.5015758 88.2110106,28.0341818 87.0517463,28.0341818 Z" id="Fill-7" fill="#5C5292"></path>
                    <polyline id="Fill-8" fill="#5C5292" points="97.279611 27.8346667 95.6889641 25.4092121 95.2036279 25.4092121 95.2036279 27.8346667 92.9115856 27.8346667 92.9115856 18.505697 95.2036279 18.505697 95.2036279 23.6763636 95.7164313 23.6763636 97.1312389 21.4378182 99.6935391 21.4378182 97.590334 24.5825455 99.8286681 27.8346667 97.279611 27.8346667"></polyline>
                    <path d="M103.9463,26.1689697 C104.579763,26.1689697 105.051611,25.7825455 105.253937,25.3692121 L105.253937,23.9030303 C105.051611,23.489697 104.579763,23.1035152 103.9463,23.1035152 C102.976118,23.1035152 102.557488,23.8901818 102.557488,24.6356364 C102.557488,25.382303 102.976118,26.1689697 103.9463,26.1689697 Z M103.32608,28.0341818 C101.155924,28.0341818 100.198495,26.2882424 100.198495,24.6356364 C100.198495,22.984 101.155924,21.2380606 103.32608,21.2380606 C104.485345,21.2380606 105.199983,21.7709091 105.523704,22.3035152 L105.523704,21.4378182 L107.545734,21.4378182 L107.545734,27.8346667 L105.523704,27.8346667 L105.523704,26.9687273 C105.199983,27.5015758 104.485345,28.0341818 103.32608,28.0341818 Z" id="Fill-9" fill="#5C5292"></path>
                    <path d="M113.27167,21.2380606 C115.0514,21.2380606 115.860457,22.424 115.860457,23.8630303 L115.860457,27.8346667 L113.568169,27.8346667 L113.568169,24.1701818 C113.568169,23.489697 113.15003,23.1706667 112.583273,23.1706667 C112.071941,23.1706667 111.680042,23.4766061 111.477962,23.7294545 L111.477962,27.8346667 L109.18592,27.8346667 L109.18592,21.4378182 L111.209175,21.4378182 L111.209175,22.1701818 C111.747975,21.5970909 112.408905,21.2380606 113.27167,21.2380606" id="Fill-10" fill="#5C5292"></path>
                    <path d="M41.1137844,39.177697 L41.1137844,29.8484848 L42.1656321,29.8484848 L47.8410486,37.2981818 C47.8410486,37.0322424 47.8410486,36.7653333 47.8410486,36.4984242 L47.8410486,29.8484848 L48.9738266,29.8484848 L48.9738266,39.177697 L47.9222241,39.177697 L42.2468076,31.7139394 C42.2468076,31.9808485 42.2468076,32.248 42.2468076,32.5139394 L42.2468076,39.177697 L41.1137844,39.177697" id="Fill-11" fill="#5C5292"></path>
                    <path d="M54.0488879,33.606303 C52.9433319,33.606303 51.9191966,34.2598788 51.8380211,35.5132121 L56.0302072,35.5132121 C56.1246258,34.8327273 55.6932431,33.606303 54.0488879,33.606303 Z M53.9816913,32.6210909 C56.475814,32.6210909 57.3925328,34.6329697 56.9873911,36.4450909 L51.8380211,36.4450909 C51.9729049,37.7917576 53.1991205,38.352 54.5077378,38.352 C55.3023256,38.352 56.0851416,38.1381818 56.6371839,37.832 L56.6371839,38.8715152 C56.0444313,39.177697 55.1946638,39.3369697 54.3451416,39.3369697 C52.4305285,39.3369697 50.7599323,38.2584242 50.7599323,35.9786667 C50.7599323,33.7398788 52.4449979,32.6210909 53.9816913,32.6210909 Z" id="Fill-12" fill="#5C5292"></path>
                    <path d="M60.1601015,30.528 L60.1601015,32.7806061 L62.7483975,32.7806061 L62.7483975,33.7670303 L60.1601015,33.7670303 L60.1601015,37.0722424 C60.1601015,38.0446061 60.604482,38.337697 61.5486681,38.337697 C62.0614715,38.337697 62.5465624,38.2184242 62.977945,38.0446061 L62.977945,39.0310303 C62.4926089,39.2046061 61.8581649,39.3238788 61.2391712,39.3238788 C59.9845074,39.3238788 59.0952558,38.657697 59.0952558,37.2591515 L59.0952558,33.7670303 L57.8810571,33.7670303 L57.8810571,32.7806061 L59.0952558,32.7806061 L59.0952558,30.7949091 L60.1601015,30.528" id="Fill-13" fill="#5C5292"></path>
                    <polyline id="Fill-14" fill="#5C5292" points="73.8468753 32.7806061 71.6360085 39.177697 70.4635011 39.177697 68.7105032 34.233697 66.958241 39.177697 65.7847526 39.177697 63.5738858 32.7806061 64.7069091 32.7806061 66.3787315 38.0046061 68.225167 32.7806061 69.1955941 32.7806061 71.0432558 38.0046061 72.7150782 32.7806061 73.8468753 32.7806061"></polyline>
                    <path d="M78.1006173,33.633697 C76.7790021,33.633697 75.7271543,34.4996364 75.7271543,35.9786667 C75.7271543,37.4586667 76.7790021,38.3246061 78.1006173,38.3246061 C79.4212516,38.3246061 80.4730994,37.4586667 80.4730994,35.9786667 C80.4730994,34.4996364 79.4212516,33.633697 78.1006173,33.633697 Z M78.1006173,32.6210909 C79.8658774,32.6210909 81.5519239,33.7932121 81.5519239,35.9786667 C81.5519239,38.1650909 79.8658774,39.3369697 78.1006173,39.3369697 C76.3473742,39.3369697 74.6493108,38.1650909 74.6493108,35.9786667 C74.6493108,33.7932121 76.3473742,32.6210909 78.1006173,32.6210909 Z" id="Fill-15" fill="#5C5292"></path>
                    <path d="M87.0012262,32.6470303 L87.0012262,33.7139394 C85.7345455,33.5672727 84.7091839,34.166303 84.3182664,35.1929697 L84.3182664,39.177697 L83.2404228,39.177697 L83.2404228,32.7806061 L84.2108499,32.7806061 L84.2108499,33.9134545 C84.723408,33.073697 85.8696744,32.5539394 87.0012262,32.6470303" id="Fill-16" fill="#5C5292"></path>
                    <polyline id="Fill-17" fill="#5C5292" points="93.0312643 39.177697 90.6590275 36.4322424 89.3911205 36.4322424 89.3911205 39.177697 88.3130317 39.177697 88.3130317 29.8484848 89.3911205 29.8484848 89.3911205 35.4458182 90.6997378 35.4458182 92.7480085 32.7806061 94.0016913 32.7806061 91.5482791 35.9655758 94.2991712 39.177697 93.0312643 39.177697"></polyline>
                    <path d="M37.6489894,3.53430303 L25.7566596,36.273697 L22.2653784,18.7420606 L37.6489894,3.53430303 Z M20.379704,18.9141818 L15.2896829,23.945697 L3.76570825,15.6809697 L20.379704,18.9141818 Z M3.67374207,14.4443636 L36.7935814,2.6889697 L21.4099704,17.8957576 L3.67374207,14.4443636 Z M21.2341311,19.7614545 L24.5056744,36.1832727 L16.1450909,24.7912727 L21.2341311,19.7614545 Z M0.351188161,14.3524848 L0.177801268,14.4138182 L14.7972347,25.2610909 L25.7134968,39.6191515 L25.8233658,39.7648485 L39.9932685,0.622787879 L40.1340381,0.232484848 L0.351188161,14.3524848 Z" id="Fill-18" fill="#5C5292"></path>
                    <polyline id="Fill-19" fill="#5A94B4" points="20.0035011 27.5757576 13.9435433 33.5660606 17.7283805 39.7161212 20.0035011 27.5757576"></polyline>
                    <polyline id="Fill-20" fill="#9CD1BC" points="7.72221564 29.8249697 13.9435433 33.5660606 20.0035011 27.5757576 7.72221564 29.8249697"></polyline>
                    <path d="M7.72221564,29.8249697 C7.83429175,29.936 17.7283805,39.7161212 17.7283805,39.7161212 L13.9435433,33.5660606 L7.72221564,29.8249697" id="Fill-21" fill="#5C5292"></path>
                </g>
            </g>
        </g>
    </g>
</svg>