<?xml version="1.0" encoding="UTF-8"?>
<svg width="26px" height="29px" viewBox="0 0 26 29" version="1.1" xmlns="http://www.w3.org/2000/svg" xmlns:xlink="http://www.w3.org/1999/xlink">
    <!-- Generator: Sketch 49.3 (51167) - http://www.bohemiancoding.com/sketch -->
    <title>pdf</title>
    <desc>Created with Sketch.</desc>
    <defs></defs>
    <g id="Color" stroke="none" stroke-width="1" fill="none" fill-rule="evenodd">
        <g id="Taklimakan-Investor's-Profile-var.-1.1" transform="translate(-327.000000, -1693.000000)" fill-rule="nonzero">
            <g id="Group-9" transform="translate(300.000000, 1668.000000)">
                <g id="Group-29">
                    <g id="Group-28" transform="translate(15.000000, 15.000000)">
                        <g id="Bitmap">
                            <g id="Group-16">
                                <g id="pdf" transform="translate(12.000000, 10.000000)">
                                    <path d="M5.3459596,0 C4.33901515,0 3.51515152,0.815625 3.51515152,1.8125 L3.51515152,27.1875 C3.51515152,28.184375 4.33901515,29 5.3459596,29 L23.6540404,29 C24.6609848,29 25.4848485,28.184375 25.4848485,27.1875 L25.4848485,7.25 L18.1616162,0 L5.3459596,0 Z" id="Shape" fill="#E2E5E7"></path>
                                    <path d="M20.2121212,7.03030303 L25.4848485,7.03030303 L18.4545455,0 L18.4545455,5.27272727 C18.4545455,6.23939394 19.2454545,7.03030303 20.2121212,7.03030303 Z" id="Shape" fill="#B0B7BD"></path>
                                    <polygon id="Shape" fill="#CAD1D8" points="25.4848485 12.3030303 20.2121212 7.03030303 25.4848485 7.03030303"></polygon>
                                    <path d="M21.969697,22.8484848 C21.969697,23.3318182 21.5577652,23.7272727 21.0542929,23.7272727 L0.91540404,23.7272727 C0.411931818,23.7272727 0,23.3318182 0,22.8484848 L0,14.0606061 C0,13.5772727 0.411931818,13.1818182 0.91540404,13.1818182 L21.0542929,13.1818182 C21.5577652,13.1818182 21.969697,13.5772727 21.969697,14.0606061 L21.969697,22.8484848 Z" id="Shape" fill="#F15642"></path>
                                    <g id="Group" transform="translate(4.393939, 16.696970)" fill="#FFFFFF">
                                        <path d="M0.0418443636,0.536177778 C0.0418443636,0.288711111 0.229019152,0.0187474747 0.530478545,0.0187474747 L2.19255467,0.0187474747 C3.12842861,0.0187474747 3.97071515,0.671159596 3.97071515,1.92161616 C3.97071515,3.10645657 3.12842861,3.76636768 2.19255467,3.76636768 L0.991216485,3.76636768 L0.991216485,4.75623434 C0.991216485,5.0861899 0.789643636,5.27272727 0.530478545,5.27272727 C0.292910545,5.27272727 0.0418443636,5.0861899 0.0418443636,4.75623434 L0.0418443636,0.536177778 Z M0.991216485,0.962682828 L0.991216485,2.82993131 L2.19255467,2.82993131 C2.6748897,2.82993131 3.0564383,2.38655354 3.0564383,1.92161616 C3.0564383,1.39762424 2.6748897,0.962682828 2.19255467,0.962682828 L0.991216485,0.962682828 Z" id="Shape"></path>
                                        <path d="M5.37992533,5.27272727 C5.14235733,5.27272727 4.88319224,5.13774545 4.88319224,4.80872727 L4.88319224,0.551175758 C4.88319224,0.282149495 5.14235733,0.0862383838 5.37992533,0.0862383838 L7.02760339,0.0862383838 C10.3157605,0.0862383838 10.2437702,5.27272727 7.09239467,5.27272727 L5.37992533,5.27272727 Z M5.83346424,1.00111515 L5.83346424,4.35878788 L7.02760339,4.35878788 C8.9704417,4.35878788 9.05683006,1.00111515 7.02760339,1.00111515 L5.83346424,1.00111515 Z" id="Shape"></path>
                                        <path d="M11.4100131,1.06110707 L11.4100131,2.25250909 L13.2448659,2.25250909 C13.504031,2.25250909 13.7631961,2.52247273 13.7631961,2.784 C13.7631961,3.03146667 13.504031,3.23393939 13.2448659,3.23393939 L11.4100131,3.23393939 L11.4100131,4.8077899 C11.4100131,5.07025455 11.2309372,5.2717899 10.9789712,5.2717899 C10.6622138,5.2717899 10.4687399,5.07025455 10.4687399,4.8077899 L10.4687399,0.550238384 C10.4687399,0.281212121 10.6631137,0.0853010101 10.9789712,0.0853010101 L13.5049309,0.0853010101 C13.8216882,0.0853010101 14.008863,0.281212121 14.008863,0.550238384 C14.008863,0.790206061 13.8216882,1.0601697 13.5049309,1.0601697 L11.4100131,1.0601697 L11.4100131,1.06110707 Z" id="Shape"></path>
                                    </g>
                                    <path d="M21.0469697,24.6060606 L3.51515152,24.6060606 L3.51515152,25.4848485 L21.0469697,25.4848485 C21.5544697,25.4848485 21.969697,25.0893939 21.969697,24.6060606 L21.969697,23.7272727 C21.969697,24.2106061 21.5544697,24.6060606 21.0469697,24.6060606 Z" id="Shape" fill="#CAD1D8"></path>
                                </g>
                            </g>
                        </g>
                    </g>
                </g>
            </g>
        </g>
    </g>
</svg>