<svg xmlns="http://www.w3.org/2000/svg" viewBox="0 0 471.71 163.07"><defs><style>.cls-1{fill:#583fe7;}.cls-2{fill:#759fcc;}.cls-3{fill:#aef2d2;}.cls-4{fill:none;}</style></defs><title>taklimakan</title><g id="Слой_2" data-name="Слой 2"><g id="Layer_1" data-name="Layer 1"><path class="cls-1" d="M194.46,75.38v9.07H183.63v29.41H173.46V84.45H162.58V75.38Z"/><path class="cls-1" d="M206.39,114.68c-8.85,0-12.75-7.2-12.75-14s3.9-14,12.75-14c4.73,0,7.64,2.2,9,4.4V87.47h8.25v26.39h-8.25v-3.57C214,112.48,211.11,114.68,206.39,114.68Zm2.53-7.69a5.94,5.94,0,0,0,5.33-3.3v-6a5.94,5.94,0,0,0-5.33-3.3c-4,0-5.66,3.25-5.66,6.32S205,107,208.92,107Z"/><path class="cls-1" d="M248.09,113.86l-6.49-10h-2v10h-9.35V75.38h9.35V96.71h2.09l5.77-9.23h10.45l-8.58,13,9.13,13.42Z"/><path class="cls-1" d="M271.48,73.73v40.13h-9.34V73.73Z"/><path class="cls-1" d="M282.73,83.73c-2.81,0-5.34-1.54-5.34-5.17s2.53-5.11,5.34-5.11,5.33,1.54,5.33,5.11S285.59,83.73,282.73,83.73Zm-4.67,30.12V87.47h9.34v26.39Z"/><path class="cls-1" d="M293.93,113.86V87.47h8.25v2.8a10.92,10.92,0,0,1,8.13-3.63c4,0,6.38,1.59,7.81,3.63a12.38,12.38,0,0,1,8.41-3.63c7.92,0,9.73,6.37,9.73,10.28v16.93h-9.35V97.75a2.88,2.88,0,0,0-3-3.13,5.55,5.55,0,0,0-3.85,1.7v17.54H310.7V97.75a2.88,2.88,0,0,0-3-3.13,5.78,5.78,0,0,0-4.4,2.31v16.93Z"/><path class="cls-1" d="M354.24,114.68c-8.85,0-12.75-7.2-12.75-14s3.9-14,12.75-14c4.73,0,7.64,2.2,9,4.4V87.47h8.25v26.39H363.2v-3.57C361.88,112.48,359,114.68,354.24,114.68Zm2.53-7.69a5.94,5.94,0,0,0,5.33-3.3v-6a5.94,5.94,0,0,0-5.33-3.3c-4,0-5.66,3.25-5.66,6.32S352.81,107,356.77,107Z"/><path class="cls-1" d="M395.94,113.86l-6.49-10h-2v10h-9.35V75.38h9.35V96.71h2.09l5.77-9.23h10.45l-8.58,13,9.13,13.42Z"/><path class="cls-1" d="M420.6,114.68c-8.85,0-12.75-7.2-12.75-14s3.9-14,12.75-14c4.73,0,7.64,2.2,9,4.4V87.47h8.25v26.39h-8.25v-3.57C428.24,112.48,425.32,114.68,420.6,114.68Zm2.53-7.69a5.94,5.94,0,0,0,5.33-3.3v-6a5.94,5.94,0,0,0-5.33-3.3c-4,0-5.66,3.25-5.66,6.32S419.17,107,423.13,107Z"/><path class="cls-1" d="M461.15,86.65c7.26,0,10.55,4.89,10.55,10.83v16.38h-9.35V98.74c0-2.81-1.71-4.12-4-4.12a5.92,5.92,0,0,0-4.51,2.31v16.93h-9.35V87.47h8.25v3A11.07,11.07,0,0,1,461.15,86.65Z"/><path class="cls-1" d="M166.92,160.65V122.17h4.29l23.14,30.73V122.17H199v38.48h-4.29l-23.14-30.79v30.79Z"/><path class="cls-1" d="M219.39,133.6c10.17,0,13.91,8.3,12.26,15.77h-21c.55,5.55,5.55,7.86,10.89,7.86a18.45,18.45,0,0,0,8.68-2.14v4.29a21.16,21.16,0,0,1-9.35,1.92c-7.81,0-14.62-4.45-14.62-13.85C206.25,138.22,213.12,133.6,219.39,133.6Zm.27,4.06c-4.51,0-8.68,2.69-9,7.86h17.09C228.13,142.73,226.37,137.67,219.66,137.67Z"/><path class="cls-1" d="M244.58,125v9.29h10.55v4.07H244.58V152c0,4,1.81,5.22,5.66,5.22a15.5,15.5,0,0,0,5.83-1.21V160a21.72,21.72,0,0,1-7.09,1.21c-5.12,0-8.74-2.75-8.74-8.52v-14.4h-5v-4.07h5v-8.19Z"/><path class="cls-1" d="M300.39,134.26l-9,26.39H286.6l-7.15-20.39-7.14,20.39h-4.79l-9-26.39h4.62l6.82,21.55,7.53-21.55h4L289,155.81l6.82-21.55Z"/><path class="cls-1" d="M317.74,133.6c7.2,0,14.07,4.83,14.07,13.85s-6.88,13.85-14.07,13.85-14.07-4.83-14.07-13.85S310.59,133.6,317.74,133.6Zm0,4.18c-5.39,0-9.68,3.57-9.68,9.67s4.29,9.68,9.68,9.68,9.67-3.57,9.67-9.68S323.12,137.78,317.74,137.78Z"/><path class="cls-1" d="M354,133.71v4.4c-5.17-.6-9.35,1.87-10.94,6.1v16.44h-4.4V134.26h4v4.67C344.74,135.47,349.42,133.33,354,133.71Z"/><path class="cls-1" d="M378.62,160.65l-9.67-11.32h-5.17v11.32h-4.4V122.17h4.4v23.09h5.34l8.35-11h5.11l-10,13.14,11.22,13.25Z"/><path class="cls-1" d="M.71,58.25,0,58.5l59.61,44.74,44.51,59.23.45.6L162.35,1.61,162.93,0ZM85.86,80.56,99.2,148.3l-34.09-47ZM14.26,58.62l135-48.49L86.58,72.86ZM82.37,77.06,61.62,97.82l-47-34.09Zm70.42-63.44-48.49,135L90.06,76.35Z"/><polygon class="cls-2" points="80.84 112.79 56.13 137.5 71.56 162.87 80.84 112.79"/><polygon class="cls-3" points="30.76 122.07 56.13 137.5 80.84 112.79 30.76 122.07"/><path class="cls-1" d="M30.76,122.07l40.8,40.8L56.13,137.5Z"/><path class="cls-4" d="M213.78,151.78"/></g></g></svg>