<?xml version="1.0" encoding="UTF-8"?>
<svg width="14px" height="12px" viewBox="0 0 14 12" version="1.1" xmlns="http://www.w3.org/2000/svg" xmlns:xlink="http://www.w3.org/1999/xlink">
    <!-- Generator: Sketch 49.1 (51147) - http://www.bohemiancoding.com/sketch -->
    <title>Shape</title>
    <desc>Created with Sketch.</desc>
    <defs></defs>
    <g id="Landing" stroke="none" stroke-width="1" fill="none" fill-rule="evenodd">
        <g id="05.-News-Include" transform="translate(-1257.000000, -1836.000000)" fill="#989898">
            <g id="Heart" transform="translate(1257.000000, 1835.000000)">
                <path d="M13.998,4.74 C13.998,2.674 12.306,1 10.218,1 C8.855,1 7.664,1.716 6.999,2.787 C6.334,1.716 5.143,1 3.779,1 C1.692,1 0,2.674 0,4.74 C0,5.865 0.503,6.871 1.297,7.557 L6.654,12.858 C6.745,12.948 6.869,12.999 6.999,12.999 C7.128,12.999 7.252,12.948 7.344,12.858 L12.701,7.557 C13.494,6.871 13.998,5.865 13.998,4.74 L13.998,4.74 L13.998,4.74 Z" id="Shape"></path>
            </g>
        </g>
    </g>
</svg>