<?xml version="1.0" encoding="UTF-8"?>
<svg width="36px" height="36px" viewBox="0 0 36 36" version="1.1" xmlns="http://www.w3.org/2000/svg" xmlns:xlink="http://www.w3.org/1999/xlink">
    <!-- Generator: Sketch 49.1 (51147) - http://www.bohemiancoding.com/sketch -->
    <title>eth</title>
    <desc>Created with Sketch.</desc>
    <defs></defs>
    <g id="Landing" stroke="none" stroke-width="1" fill="none" fill-rule="evenodd">
        <g id="01.-Taklimakan-Landing" transform="translate(-702.000000, -1518.000000)" fill-rule="nonzero">
            <g id="eth" transform="translate(702.000000, 1518.000000)">
                <path d="M18,36 C8.058375,36 0,27.941625 0,18 C0,8.058375 8.058375,0 18,0 C27.941625,0 36,8.058375 36,18 C36,27.941625 27.941625,36 18,36 Z M26.99325,18.246375 L18.56025,4.5 L10.125,18.2475 L18.56025,23.144625 L26.99325,18.246375 Z M27,19.818 L18.56025,24.712875 L10.125,19.819125 L18.56025,31.494375 L27,19.818 Z" id="Shape" fill="#FFFFFF"></path>
                <g id="Group" transform="translate(10.125000, 4.500000)">
                    <path d="M8.43525,0 L8.43525,9.97875 L16.869375,13.7475 L8.43525,0 Z M8.43525,20.214 L8.43525,26.994375 L16.875,15.318 L8.43525,20.214 Z" id="Shape" fill-opacity="0.298" fill="#FFFFFF"></path>
                    <polygon id="Shape" fill="#FFFFFF" points="8.43525 18.644625 16.869375 13.7475 8.43525 9.981"></polygon>
                    <polygon id="Shape" fill-opacity="0.391191123" fill="#DBDBDB" points="0 13.7475 8.43525 18.644625 8.43525 9.981"></polygon>
                </g>
            </g>
        </g>
    </g>
</svg>