<?xml version="1.0" encoding="UTF-8"?>
<svg width="36px" height="36px" viewBox="0 0 36 36" version="1.1" xmlns="http://www.w3.org/2000/svg" xmlns:xlink="http://www.w3.org/1999/xlink">
    <!-- Generator: Sketch 49.1 (51147) - http://www.bohemiancoding.com/sketch -->
    <title>Shape</title>
    <desc>Created with Sketch.</desc>
    <defs></defs>
    <g id="Landing" stroke="none" stroke-width="1" fill="none" fill-rule="evenodd">
        <g id="01.-Taklimakan-Landing" transform="translate(-472.000000, -1518.000000)" fill="#FFFFFF" fill-rule="nonzero">
            <path d="M490,1518 C480.0748,1518 472,1526.0748 472,1536 C472,1545.927 480.0748,1554 490,1554 C499.927,1554 508,1545.927 508,1536 C508,1526.0748 499.927,1518 490,1518 Z M495.4,1532.4 L489.1,1532.4 C488.605,1532.4 488.2,1532.805 488.2,1533.3 C488.2,1533.7968 488.605,1534.2 489.1,1534.2 L490.9,1534.2 C493.3822,1534.2 495.4,1536.2196 495.4,1538.7 C495.4,1540.8726 493.852,1542.6906 491.8,1543.1082 L491.8,1545 L488.2,1545 L488.2,1543.2 L484.6,1543.2 L484.6,1539.6 L490.9,1539.6 C491.3968,1539.6 491.8,1539.1968 491.8,1538.7 C491.8,1538.205 491.3968,1537.8 490.9,1537.8 L489.1,1537.8 C486.6196,1537.8 484.6,1535.7804 484.6,1533.3 C484.6,1531.1274 486.148,1529.3094 488.2,1528.8918 L488.2,1527 L491.8,1527 L491.8,1528.8 L495.4,1528.8 L495.4,1532.4 Z" id="Shape"></path>
        </g>
    </g>
</svg>