<?xml version="1.0" encoding="UTF-8"?>
<svg width="36px" height="36px" viewBox="0 0 36 36" version="1.1" xmlns="http://www.w3.org/2000/svg" xmlns:xlink="http://www.w3.org/1999/xlink">
    <!-- Generator: Sketch 49.1 (51147) - http://www.bohemiancoding.com/sketch -->
    <title>btc</title>
    <desc>Created with Sketch.</desc>
    <defs></defs>
    <g id="Landing" stroke="none" stroke-width="1" fill="none" fill-rule="evenodd">
        <g id="01.-Taklimakan-Landing" transform="translate(-242.000000, -1518.000000)" fill="#FFFFFF" fill-rule="nonzero">
            <g id="btc" transform="translate(242.000000, 1518.000000)">
                <path d="M18,36 C8.058375,36 0,27.941625 0,18 C0,8.058375 8.058375,0 18,0 C27.941625,0 36,8.058375 36,18 C36,27.941625 27.941625,36 18,36 Z M26.087625,15.7725 C26.440875,13.4145 24.64425,12.146625 22.1895,11.300625 L22.986,8.105625 L21.042,7.621875 L20.26575,10.7325 C19.755,10.60425 19.23075,10.485 18.707625,10.36575 L19.4895,7.234875 L17.5455,6.75 L16.749,9.943875 C16.326,9.847125 15.90975,9.752625 15.507,9.651375 L15.50925,9.64125 L12.82725,8.971875 L12.30975,11.048625 C12.30975,11.048625 13.753125,11.379375 13.72275,11.399625 C14.51025,11.5965 14.652,12.117375 14.628375,12.531375 L13.721625,16.17075 C13.775625,16.18425 13.845375,16.2045 13.924125,16.234875 L13.71825,16.18425 L12.447,21.28275 C12.35025,21.52125 12.106125,21.880125 11.554875,21.744 C11.575125,21.772125 10.141875,21.391875 10.141875,21.391875 L9.176625,23.617125 L11.707875,24.24825 C12.178125,24.366375 12.639375,24.490125 13.09275,24.606 L12.288375,27.837 L14.23125,28.32075 L15.02775,25.12575 C15.55875,25.268625 16.074,25.401375 16.578,25.527375 L15.78375,28.708875 L17.72775,29.192625 L18.532125,25.968375 C21.848625,26.596125 24.341625,26.343 25.39125,23.34375 C26.23725,20.9295 25.349625,19.535625 23.60475,18.62775 C24.876,18.33525 25.83225,17.499375 26.087625,15.7725 Z M21.643875,22.00275 C21.04425,24.418125 16.977375,23.112 15.658875,22.784625 L16.727625,18.504 C18.046125,18.833625 22.27275,19.485 21.643875,22.00275 Z M22.24575,15.737625 C21.697875,17.93475 18.313875,16.817625 17.217,16.54425 L18.1845,12.663 C19.281375,12.936375 22.81725,13.446 22.24575,15.737625 Z" id="Shape"></path>
            </g>
        </g>
    </g>
</svg>