<?xml version="1.0" encoding="UTF-8"?>
<svg width="14px" height="13px" viewBox="0 0 14 13" version="1.1" xmlns="http://www.w3.org/2000/svg" xmlns:xlink="http://www.w3.org/1999/xlink">
    <!-- Generator: Sketch 49.1 (51147) - http://www.bohemiancoding.com/sketch -->
    <title>Shape</title>
    <desc>Created with Sketch.</desc>
    <defs></defs>
    <g id="Color" stroke="none" stroke-width="1" fill="none" fill-rule="evenodd">
        <g id="01.-Index---No-Auth-Copy" transform="translate(-482.000000, -1014.000000)" fill="#FD7F7F" fill-rule="nonzero">
            <g id="Group-6" transform="translate(150.000000, 998.000000)">
                <g id="favorite" transform="translate(327.000000, 10.000000)">
                    <path d="M12.0735035,16.8877736 L12.0000035,16.9542735 L11.9265035,16.8877736 C8.5986912,13.8672751 6.3999993,11.8723461 6.3999993,9.84999808 C6.3999993,8.45349877 7.45349877,7.3999993 8.84999808,7.3999993 C9.92659054,7.3999993 10.977304,8.09439895 11.3469038,9.05271247 L12.6531032,9.05271247 C13.022703,8.09439895 14.0734025,7.3999993 15.1500019,7.3999993 C16.5465012,7.3999993 17.6000007,8.45349877 17.6000007,9.84999808 C17.6000007,11.8723461 15.4013018,13.8672751 12.0735035,16.8877736 Z M15.1500019,6 C13.9313025,6 12.7637031,6.56490672 12.0000035,7.46019927 C11.2363039,6.56490672 10.0686975,6 8.84999808,6 C6.69118515,6 5,7.69121315 5,9.84999808 C5,12.4925458 7.38140581,14.6533747 10.985704,17.924543 L12.0000035,18.8456726 L13.014303,17.924543 C16.6186012,14.6533747 19,12.4925458 19,9.84999808 C19,7.69121315 17.3088008,6 15.1500019,6 Z" id="Shape"></path>
                </g>
            </g>
        </g>
    </g>
</svg>