<?xml version="1.0" encoding="UTF-8"?>
<svg width="16px" height="20px" viewBox="0 0 16 20" version="1.1" xmlns="http://www.w3.org/2000/svg" xmlns:xlink="http://www.w3.org/1999/xlink">
    <!-- Generator: Sketch 49.1 (51147) - http://www.bohemiancoding.com/sketch -->
    <title>Shape</title>
    <desc>Created with Sketch.</desc>
    <defs></defs>
    <g id="Color" stroke="none" stroke-width="1" fill="none" fill-rule="evenodd">
        <g id="01.1-Index---No-Auth---List-Copy" transform="translate(-1362.000000, -1189.000000)" fill="#FFFFFF" fill-rule="nonzero">
            <g id="wi-refresh" transform="translate(1362.000000, 1189.000000)">
                <path d="M0.0266666667,11.3752491 C0.0266666667,12.8086591 0.39264368,14.1505748 1.10934866,15.3704982 C1.82605365,16.5904215 2.80199235,17.5663602 4.02191573,18.2678162 C5.24183911,18.9845212 6.56850578,19.3352491 8.00191575,19.3352491 C9.4658238,19.3352491 10.7924905,18.9845212 12.0124139,18.2830652 C13.2323372,17.5816093 14.1930269,16.6209196 14.8944828,15.4009962 C15.5959388,14.1810729 15.9466667,12.8391571 15.9466667,11.3904981 C15.9466667,11.0245211 15.8246744,10.7195403 15.5806897,10.4603066 C15.3367051,10.2010728 15.0469733,10.0790805 14.6809962,10.0790805 C14.3302683,10.0790805 14.0252874,10.2010728 13.7660537,10.4603066 C13.50682,10.7195403 13.3848277,11.0245211 13.3848277,11.3904981 C13.3848277,12.8849043 12.8511112,14.1658238 11.7989273,15.2180077 C10.7467433,16.2701916 9.4658238,16.8039081 7.97141766,16.8039081 C6.49226057,16.8039081 5.24183911,16.2701916 4.20490423,15.2180077 C3.16796936,14.1658238 2.64950193,12.8849043 2.64950193,11.3904981 C2.64950193,10.0943295 3.04597703,8.9201533 3.85417626,7.86796938 C4.6623755,6.81578547 5.59256708,6.25157091 6.66000003,6.19057474 L6.08053643,6.7547893 C5.83655175,7.02927206 5.71455941,7.31900386 5.71455941,7.63923375 C5.71455941,7.97471268 5.83655175,8.27969352 6.08053643,8.55417628 C6.62950195,9.08789276 7.25471268,9.08789276 7.92567054,8.55417628 L10.7314943,5.7788506 C10.975479,5.59586209 11.0974713,5.27563221 11.0974713,4.83340998 C11.0974713,4.43693488 10.975479,4.14720308 10.7314943,3.96421457 L7.95616862,1.11264368 C7.68168586,0.868659004 7.39195406,0.746666667 7.08697321,0.746666667 C6.70574716,0.746666667 6.38551727,0.868659004 6.12628355,1.12789272 C5.86704984,1.38712644 5.7450575,1.69210728 5.7450575,2.04283526 C5.7450575,2.40881227 5.86704984,2.72904216 6.11103451,2.97302683 L6.69049812,3.52199235 C4.78436784,3.85747128 3.19846745,4.77241381 1.93279694,6.26681995 C0.66712644,7.76122609 0.0266666667,9.45386977 0.0266666667,11.3752491 Z" id="Shape"></path>
            </g>
        </g>
    </g>
</svg>