<?xml version="1.0" encoding="UTF-8"?>
<svg width="17px" height="17px" viewBox="0 0 17 17" version="1.1" xmlns="http://www.w3.org/2000/svg" xmlns:xlink="http://www.w3.org/1999/xlink">
    <!-- Generator: Sketch 49.1 (51147) - http://www.bohemiancoding.com/sketch -->
    <title>Shape</title>
    <desc>Created with Sketch.</desc>
    <defs></defs>
    <g id="Landing" stroke="none" stroke-width="1" fill="none" fill-rule="evenodd">
        <g id="News-Page" transform="translate(-1152.000000, -32.000000)" fill="#FFFFFF" fill-rule="nonzero">
            <g id="Group-2" transform="translate(150.000000, 15.000000)">
                <g id="account-circle" transform="translate(1002.000000, 17.000000)">
                    <path d="M8.90411429,14.7318762 C6.87706667,14.7318762 5.09368571,13.6965762 4.04859048,12.1252905 C4.0696381,10.5167667 7.28992381,9.63195714 8.90411429,9.63195714 C10.5183048,9.63195714 13.7385905,10.5167667 13.7596381,12.1252905 C12.7145429,13.6965762 10.9311619,14.7318762 8.90411429,14.7318762 Z M8.90411429,3.23666238 C10.2446857,3.23666238 11.3326857,4.32465429 11.3326857,5.66523381 C11.3326857,7.00744048 10.2446857,8.09378095 8.90411429,8.09378095 C7.56354286,8.09378095 6.47554286,7.00744048 6.47554286,5.66523381 C6.47554286,4.32465429 7.56354286,3.23666238 8.90411429,3.23666238 Z M8.90411429,0.808090952 C4.43311429,0.808090952 0.80887619,4.43152762 0.80887619,8.90330476 C0.80887619,13.3743048 4.43311429,16.9985429 8.90411429,16.9985429 C13.3751143,16.9985429 16.9993524,13.3743048 16.9993524,8.90330476 C16.9993524,4.43152762 13.3751143,0.808090952 8.90411429,0.808090952 Z" id="Shape"></path>
                </g>
            </g>
        </g>
    </g>
</svg>