<?xml version="1.0" encoding="UTF-8"?>
<svg width="15px" height="12px" viewBox="0 0 15 12" version="1.1" xmlns="http://www.w3.org/2000/svg" xmlns:xlink="http://www.w3.org/1999/xlink">
    <!-- Generator: Sketch 49.1 (51147) - http://www.bohemiancoding.com/sketch -->
    <title>Shape</title>
    <desc>Created with Sketch.</desc>
    <defs></defs>
    <g id="Landing" stroke="none" stroke-width="1" fill="none" fill-rule="evenodd">
        <g id="01.-Taklimakan-Landing" transform="translate(-180.000000, -1054.000000)" fill="#666666" fill-rule="nonzero">
            <g id="Group-19" transform="translate(180.000000, 1052.000000)">
                <path d="M7.49961449,14 L0.681432668,14 C0.410069031,14 0.164614486,13.8426667 0.0568872132,13.6 C-0.0515218777,13.3566667 -0.0024309686,13.074 0.182341759,12.88 L1.75461449,11.224 C1.0502963,10.2613333 0.681432668,9.15666667 0.681432668,8 C0.681432668,4.69133333 3.74006903,2 7.49961449,2 C11.2591599,2 14.3177963,4.69133333 14.3177963,8 C14.3177963,11.3086667 11.2591599,14 7.49961449,14 Z M2.24484176,12.6666667 L7.49961449,12.6666667 C10.5071145,12.6666667 12.9541599,10.5733333 12.9541599,8 C12.9541599,5.42733333 10.5071145,3.33333333 7.49961449,3.33333333 C4.49211449,3.33333333 2.04506903,5.42733333 2.04506903,8 C2.04506903,9.02466667 2.43234176,10 3.16461449,10.8213333 C3.3937054,11.0786667 3.38756903,11.4633333 3.1502963,11.7133333 L2.24484176,12.6666667 Z" id="Shape"></path>
            </g>
        </g>
    </g>
</svg>