<?xml version="1.0" encoding="UTF-8"?>
<svg width="16px" height="16px" viewBox="0 0 16 16" version="1.1" xmlns="http://www.w3.org/2000/svg" xmlns:xlink="http://www.w3.org/1999/xlink">
    <!-- Generator: Sketch 49.1 (51147) - http://www.bohemiancoding.com/sketch -->
    <title>Shape</title>
    <desc>Created with Sketch.</desc>
    <defs></defs>
    <g id="Color" stroke="none" stroke-width="1" fill="none" fill-rule="evenodd">
        <g id="01.-Index---No-Auth-Copy" transform="translate(-419.000000, -1307.000000)" fill="#FFFFFF" fill-rule="nonzero">
            <g id="Group-6" transform="translate(150.000000, 998.000000)">
                <g id="Btn-/-Main-btn" transform="translate(245.000000, 299.000000)">
                    <g id="Group-14" transform="translate(24.000000, 9.000000)">
                        <path d="M12.8000018,13.800017 C13.6832013,13.800017 14.4000009,14.5160166 14.4000009,15.4000161 C14.4000009,16.2840156 13.6832013,17.0000152 12.8000018,17.0000152 C11.9160022,17.0000152 11.2080026,16.2840156 11.2080026,15.4000161 C11.2080026,14.5160166 11.9160022,13.800017 12.8000018,13.800017 Z M0,1 L2.61280736,1 L3.37039095,2.59999912 L15.2000004,2.59999912 C15.6416002,2.59999912 16,2.95759892 16,3.39999868 C16,3.5400066 15.964,3.67200653 15.9008001,3.78559047 L13.0400016,8.97681961 C12.7664018,9.46801934 12.2424021,9.80001916 11.6408024,9.80001916 L5.68160568,9.80001916 L4.96399807,11.1032184 L4.93840608,11.2000184 C4.93840608,11.3112183 5.02799003,11.4000183 5.13840597,11.4000183 L14.4000009,11.4000183 L14.4000009,13.0000174 L4.79999816,13.0000174 C3.91599865,13.0000174 3.19999904,12.2840178 3.19999904,11.4000183 C3.19999904,11.1216184 3.271207,10.8592186 3.39599093,10.6312187 L4.47734234,8.66961978 L1.59999992,2.59999912 L0,2.59999912 L0,1 Z M4.79999816,13.800017 C5.68319767,13.800017 6.39999728,14.5160166 6.39999728,15.4000161 C6.39999728,16.2840156 5.68319767,17.0000152 4.79999816,17.0000152 C3.91599865,17.0000152 3.20799104,16.2840156 3.20799104,15.4000161 C3.20799104,14.5160166 3.91599865,13.800017 4.79999816,13.800017 Z M12.0004822,8.20154004 L14.222721,4.20154224 L4.11159854,4.20154224 L6.0004855,8.20154004 L12.0004822,8.20154004 Z" id="Shape"></path>
                    </g>
                </g>
            </g>
        </g>
    </g>
</svg>