<?xml version="1.0" encoding="UTF-8"?>
<svg width="36px" height="36px" viewBox="0 0 36 36" version="1.1" xmlns="http://www.w3.org/2000/svg" xmlns:xlink="http://www.w3.org/1999/xlink">
    <!-- Generator: Sketch 49.1 (51147) - http://www.bohemiancoding.com/sketch -->
    <title>xmr</title>
    <desc>Created with Sketch.</desc>
    <defs></defs>
    <g id="Landing" stroke="none" stroke-width="1" fill="none" fill-rule="evenodd">
        <g id="01.-Taklimakan-Landing" transform="translate(-1162.000000, -1518.000000)" fill="#FFFFFF" fill-rule="nonzero">
            <g id="xmr" transform="translate(1162.000000, 1518.000000)">
                <path d="M18,36 C8.058375,36 0,27.941625 0,18 C0,8.058375 8.058375,0 18,0 C27.941625,0 36,8.058375 36,18 C36,27.941625 27.941625,36 18,36 Z M17.96625,5.889375 C14.7363664,5.88758239 11.6382883,7.17000887 9.35462641,9.45409283 C7.07096449,11.7381768 5.78911054,14.8364918 5.7915,18.066375 C5.7915,19.418625 6.022125,20.705625 6.418125,21.927375 L10.0485,21.927375 L10.0485,11.696625 L17.9685,19.616625 L25.8885,11.696625 L25.8885,21.927375 L29.51775,21.927375 C29.9290776,20.6814779 30.1409405,19.3784075 30.1455,18.066375 C30.1455,11.334375 24.7005,5.889375 17.9685,5.889375 L17.96625,5.889375 Z M16.15275,21.3975 L12.68775,17.9325 L12.68775,24.3675 L7.572375,24.3675 C9.716625,27.86625 13.577625,30.2085 17.967375,30.2085 C22.356,30.2085 26.249625,27.86625 28.362375,24.3675 L23.247,24.3675 L23.247,17.9325 L19.81575,21.3975 L18,23.214375 L16.151625,21.398625 L16.15275,21.3975 Z" id="Shape"></path>
            </g>
        </g>
    </g>
</svg>