<?xml version="1.0" encoding="UTF-8"?>
<svg width="36px" height="36px" viewBox="0 0 36 36" version="1.1" xmlns="http://www.w3.org/2000/svg" xmlns:xlink="http://www.w3.org/1999/xlink">
    <!-- Generator: Sketch 49.1 (51147) - http://www.bohemiancoding.com/sketch -->
    <title>ltc</title>
    <desc>Created with Sketch.</desc>
    <defs></defs>
    <g id="Landing" stroke="none" stroke-width="1" fill="none" fill-rule="evenodd">
        <g id="01.-Taklimakan-Landing" transform="translate(-932.000000, -1518.000000)" fill="#FFFFFF" fill-rule="nonzero">
            <g id="ltc" transform="translate(932.000000, 1518.000000)">
                <path d="M18,36 C8.058375,36 0,27.941625 0,18 C0,8.058375 8.058375,0 18,0 C27.941625,0 36,8.058375 36,18 C36,27.941625 27.941625,36 18,36 Z M11.730375,21.61575 L10.4085,27 L24.892875,27 L25.875,22.982625 L17.18775,22.982625 L18.14175,19.06425 L19.747125,18.421875 L20.512125,15.328125 L18.925875,15.9705 L20.63475,9 L14.864625,9 L12.5235,18.482625 L10.899,19.135125 L10.125,22.239 L11.730375,21.61575 Z" id="Shape"></path>
            </g>
        </g>
    </g>
</svg>