<?xml version="1.0" encoding="UTF-8"?>
<svg width="14px" height="12px" viewBox="0 0 14 12" version="1.1" xmlns="http://www.w3.org/2000/svg" xmlns:xlink="http://www.w3.org/1999/xlink">
    <!-- Generator: Sketch 49.1 (51147) - http://www.bohemiancoding.com/sketch -->
    <title>Shape</title>
    <desc>Created with Sketch.</desc>
    <defs></defs>
    <g id="Landing" stroke="none" stroke-width="1" fill="none" fill-rule="evenodd">
        <g id="01.-Taklimakan-Landing" transform="translate(-307.000000, -1053.000000)" fill="#757575" fill-rule="nonzero">
            <g id="Group-20" transform="translate(307.000000, 1052.000000)">
                <path d="M6.75,13 C6.612,13 6.47475,12.96175 6.35325,12.886 C6.093,12.724 0,8.86825 0,4.75 C0,2.68225 1.68225,1 3.75,1 C4.9455,1 6.0525,1.62775 6.75,2.56 C7.4475,1.62775 8.5545,1 9.75,1 C11.81775,1 13.5,2.68225 13.5,4.75 C13.5,8.86825 7.407,12.724 7.14675,12.886 C7.02525,12.96175 6.888,13 6.75,13 Z M3.75,2.5 C2.5095,2.5 1.5,3.5095 1.5,4.75 C1.5,7.27225 4.98225,10.15525 6.75,11.3545 C8.51775,10.15525 12,7.273 12,4.75 C12,3.5095 10.9905,2.5 9.75,2.5 C8.48325,2.5 7.5,3.709 7.5,4.75 C7.5,5.164 7.16475,5.5 6.75,5.5 C6.33525,5.5 6,5.164 6,4.75 C6,3.709 5.01675,2.5 3.75,2.5 Z" id="Shape"></path>
            </g>
        </g>
    </g>
</svg>