<?xml version="1.0" encoding="UTF-8"?>
<svg width="23px" height="12px" viewBox="0 0 23 12" version="1.1" xmlns="http://www.w3.org/2000/svg" xmlns:xlink="http://www.w3.org/1999/xlink">
    <!-- Generator: Sketch 49.1 (51147) - http://www.bohemiancoding.com/sketch -->
    <title>Shape</title>
    <desc>Created with Sketch.</desc>
    <defs></defs>
    <g id="Landing" stroke="none" stroke-width="1" fill="none" fill-rule="evenodd">
        <g id="05.-News-Include" transform="translate(-1145.000000, -1836.000000)" fill="#989898">
            <g id="Reply" transform="translate(1145.000000, 1835.000000)">
                <path d="M22.626,7.437 C22.622,7.433 22.616,7.432 22.611,7.427 L19.041,4.002 C18.535,3.517 17.716,3.517 17.21,4.002 C16.704,4.487 16.704,5.274 17.21,5.758 L18.581,7.073 L6.473,7.073 C4.331,7.073 2.589,5.401 2.589,3.347 L2.589,2.242 C2.589,1.556 2.01,1 1.294,1 C0.579,1 0,1.556 0,2.242 L0,3.347 C0,6.771 2.904,9.557 6.473,9.557 L18.586,9.557 L17.21,10.877 C16.704,11.362 16.704,12.149 17.21,12.633 C17.463,12.876 17.794,12.998 18.125,12.998 C18.457,12.998 18.788,12.876 19.041,12.633 L22.611,9.208 C22.616,9.204 22.622,9.202 22.626,9.198 C22.88,8.955 23.006,8.636 23.005,8.318 C23.006,7.999 22.88,7.68 22.626,7.437 L22.626,7.437 Z" id="Shape"></path>
            </g>
        </g>
    </g>
</svg>